<?xml version="1.0" encoding="UTF-8"?>
<svg version="1.1" xmlns="http://www.w3.org/2000/svg" width="180" height="182">
<path d="M0 0 C59.4 0 118.8 0 180 0 C180 60.06 180 120.12 180 182 C120.6 182 61.2 182 0 182 C0 121.94 0 61.88 0 0 Z " fill="#010101" transform="translate(0,0)"/>
<path d="M0 0 C0.54397934 0.2557782 1.08795868 0.5115564 1.64842224 0.77508545 C2.37860062 1.11839905 3.10877899 1.46171265 3.86108398 1.81542969 C4.6278244 2.17600464 5.39456482 2.53657959 6.18453979 2.90808105 C7.84643147 3.68909628 9.50909602 4.46846719 11.17211914 5.24707031 C15.52080759 7.29732262 19.81801634 9.40557465 24.05859375 11.671875 C24.85797363 12.093479 25.65735352 12.51508301 26.48095703 12.94946289 C28.00777889 13.76019731 29.52619899 14.5870052 31.03466797 15.43139648 C31.73092285 15.79821533 32.42717773 16.16503418 33.14453125 16.54296875 C33.74628174 16.87321045 34.34803223 17.20345215 34.96801758 17.54370117 C40.27713953 18.73590938 45.92700901 14.66330612 50.55078125 12.3046875 C51.25019333 11.95238068 51.94960541 11.60007385 52.67021179 11.23709106 C54.88626196 10.12021479 57.0995381 8.99798121 59.3125 7.875 C61.54367309 6.74561412 63.77542137 5.61740357 66.00834656 4.4914856 C67.39390386 3.79256505 68.77838644 3.09150917 70.16169739 2.38815308 C74.88831261 0 74.88831261 0 76 0 C76 12.54 76 25.08 76 38 C66.79886129 42.87523021 66.79886129 42.87523021 62.40234375 45.16796875 C58.8994624 46.99668351 55.41528912 48.85514639 51.94140625 50.73828125 C50.35721471 51.57636041 48.77259637 52.41363344 47.1875 53.25 C46.45418457 53.65661865 45.72086914 54.0632373 44.96533203 54.48217773 C44.26907715 54.84384033 43.57282227 55.20550293 42.85546875 55.578125 C42.25371826 55.90200195 41.65196777 56.22587891 41.03198242 56.55957031 C35.72508768 57.70983321 30.08128055 53.68086785 25.44921875 51.33984375 C24.74980667 50.9899086 24.05039459 50.63997345 23.32978821 50.2794342 C21.86237899 49.54422716 20.3959358 48.80708914 18.93041992 48.06811523 C16.67922709 46.93332978 14.4248501 45.80507603 12.16992188 44.67773438 C10.74199731 43.96131645 9.31425626 43.24453262 7.88671875 42.52734375 C7.21074142 42.18879868 6.5347641 41.8502536 5.83830261 41.50144958 C1.11610031 39.11610031 1.11610031 39.11610031 0 38 C-0.08861992 35.1883662 -0.11522355 32.40141745 -0.09765625 29.58984375 C-0.0962413 28.74780899 -0.09482635 27.90577423 -0.09336853 27.03822327 C-0.08775263 24.33794665 -0.07519748 21.63775172 -0.0625 18.9375 C-0.05748705 17.11132932 -0.05292379 15.28515734 -0.04882812 13.45898438 C-0.03777804 8.97262458 -0.02050279 4.48632616 0 0 Z " fill="#FEFEFE" transform="translate(50,102)"/>
<path d="M0 0 C0.69941208 0.34993515 1.39882416 0.6998703 2.11943054 1.06040955 C3.58683976 1.79561659 5.05328295 2.53275461 6.51879883 3.27172852 C8.76999166 4.40651397 11.02436865 5.53476772 13.27929688 6.66210938 C14.70722144 7.3785273 16.13496249 8.09531113 17.5625 8.8125 C18.23847733 9.15104507 18.91445465 9.48959015 19.61091614 9.83839417 C24.33311844 12.22374344 24.33311844 12.22374344 25.44921875 13.33984375 C25.53783867 16.15147755 25.5644423 18.9384263 25.546875 21.75 C25.54546005 22.59203476 25.5440451 23.43406952 25.54258728 24.30162048 C25.53697138 27.0018971 25.52441623 29.70209203 25.51171875 32.40234375 C25.5067058 34.22851443 25.50214254 36.05468641 25.49804688 37.88085938 C25.48699679 42.36721917 25.46972154 46.85351759 25.44921875 51.33984375 C24.90523941 51.08406555 24.36126007 50.82828735 23.80079651 50.5647583 C22.70552895 50.0497879 22.70552895 50.0497879 21.58813477 49.52441406 C20.82139435 49.16383911 20.05465393 48.80326416 19.26467896 48.4317627 C17.60278728 47.65074747 15.94012273 46.87137656 14.27709961 46.09277344 C9.92841116 44.04252113 5.63120241 41.9342691 1.390625 39.66796875 C0.59124512 39.24636475 -0.20813477 38.82476074 -1.03173828 38.39038086 C-2.55856014 37.57964644 -4.07698024 36.75283855 -5.58544922 35.90844727 C-6.2817041 35.54162842 -6.97795898 35.17480957 -7.6953125 34.796875 C-8.29706299 34.4666333 -8.89881348 34.1363916 -9.51879883 33.79614258 C-14.82792078 32.60393437 -20.47779026 36.67653763 -25.1015625 39.03515625 C-25.80097458 39.38746307 -26.50038666 39.7397699 -27.22099304 40.10275269 C-29.43704321 41.21962896 -31.65031935 42.34186254 -33.86328125 43.46484375 C-36.09445434 44.59422963 -38.32620262 45.72244018 -40.55912781 46.84835815 C-41.94468511 47.5472787 -43.32916769 48.24833458 -44.71247864 48.95169067 C-49.43909386 51.33984375 -49.43909386 51.33984375 -50.55078125 51.33984375 C-50.55078125 38.79984375 -50.55078125 26.25984375 -50.55078125 13.33984375 C-41.34964254 8.46461354 -41.34964254 8.46461354 -36.953125 6.171875 C-33.45024365 4.34316024 -29.96607037 2.48469736 -26.4921875 0.6015625 C-24.90799596 -0.23651666 -23.32337762 -1.07378969 -21.73828125 -1.91015625 C-20.63830811 -2.52008423 -20.63830811 -2.52008423 -19.51611328 -3.14233398 C-18.8198584 -3.50399658 -18.12360352 -3.86565918 -17.40625 -4.23828125 C-16.80449951 -4.5621582 -16.20274902 -4.88603516 -15.58276367 -5.21972656 C-10.27586893 -6.36998946 -4.6320618 -2.3410241 0 0 Z " fill="#FEFEFE" transform="translate(100.55078125,30.66015625)"/>
</svg>
